<?xml version="1.0" standalone="no"?>
<!DOCTYPE svg PUBLIC "-//W3C//DTD SVG 20010904//EN"
 "http://www.w3.org/TR/2001/REC-SVG-20010904/DTD/svg10.dtd">
<svg version="1.0" xmlns="http://www.w3.org/2000/svg"
 width="960.000000pt" height="960.000000pt" viewBox="0 0 960.000000 960.000000"
 preserveAspectRatio="xMidYMid meet">
<metadata>
Created by potrace 1.11, written by Peter Selinger 2001-2013
</metadata>
<g transform="translate(0.000000,960.000000) scale(0.100000,-0.100000)"
fill="#000000" stroke="none">
<path d="M1640 9593 c-78 -26 -136 -75 -172 -143 l-23 -45 -2 -4591 c-3 -4350
-2 -4594 15 -4639 25 -69 95 -137 163 -158 50 -16 223 -17 2529 -14 1361 2
2481 5 2488 7 6 2 12 6 12 10 0 4 15 15 33 24 17 10 40 29 49 41 18 24 232
372 296 480 20 33 39 62 44 63 4 2 8 8 8 13 0 12 62 113 72 117 4 2 8 8 8 13
0 5 26 51 58 102 79 127 75 120 96 158 10 19 22 36 25 39 3 3 15 22 26 42 11
21 23 38 27 38 5 0 8 5 8 12 0 6 23 47 50 90 28 43 50 83 50 88 0 6 5 10 10
10 6 0 10 4 10 10 0 5 19 40 43 77 24 38 92 149 152 248 60 99 115 186 122
193 7 7 13 18 13 23 0 6 11 25 25 43 14 18 25 36 25 40 0 4 19 37 43 74 50 80
53 85 111 182 57 96 65 118 72 199 4 46 1 84 -10 126 -10 33 -18 65 -19 70 -7
28 -31 75 -39 75 -5 0 -6 5 -3 10 3 5 2 10 -3 10 -5 0 -19 20 -32 45 -13 25
-29 50 -37 56 -7 6 -13 17 -13 23 0 7 -12 28 -26 47 -14 19 -30 43 -35 54 -14
29 -157 262 -413 677 -22 36 -57 92 -76 124 -19 31 -47 76 -62 98 -15 23 -28
47 -28 54 0 6 -4 12 -10 12 -5 0 -10 4 -10 9 0 5 -34 62 -75 128 -41 65 -80
129 -88 143 -20 37 -141 234 -147 240 -3 3 -11 16 -19 30 -8 14 -53 88 -100
165 l-85 140 -1 2310 0 2310 -24 49 c-14 27 -32 57 -41 65 -23 23 -90 73 -90
67 0 -3 -12 2 -27 10 -24 12 -372 14 -2493 13 -1356 0 -2472 -3 -2480 -6z
m4622 -590 c2 -36 0 -70 -4 -76 -4 -6 -2 -19 3 -30 7 -12 7 -22 0 -31 -6 -7
-8 -15 -5 -18 7 -7 7 -398 0 -405 -3 -3 -1 -14 5 -25 7 -13 7 -23 0 -32 -6 -7
-8 -16 -5 -19 8 -7 8 -237 0 -244 -3 -3 -1 -14 5 -25 7 -13 7 -23 0 -32 -6 -7
-8 -15 -5 -18 7 -7 7 -398 0 -405 -3 -3 -1 -14 5 -25 7 -13 7 -23 0 -32 -6 -7
-8 -15 -5 -18 7 -7 7 -398 0 -405 -3 -3 -1 -14 5 -25 7 -13 7 -23 0 -32 -6 -7
-8 -16 -5 -19 8 -7 8 -237 0 -244 -3 -3 -1 -14 5 -25 7 -13 7 -23 0 -32 -6 -7
-8 -15 -5 -18 7 -7 7 -398 0 -405 -3 -3 -1 -14 5 -25 7 -13 7 -23 0 -32 -6 -7
-8 -15 -5 -18 7 -7 7 -398 0 -405 -3 -3 -1 -14 5 -25 7 -13 7 -23 0 -32 -6 -7
-8 -16 -5 -19 8 -7 8 -237 0 -244 -3 -3 -1 -14 5 -25 7 -13 7 -23 0 -32 -6 -7
-8 -15 -5 -18 7 -7 7 -398 0 -405 -3 -3 -1 -15 5 -25 8 -14 8 -23 0 -31 -6 -6
-7 -16 -1 -27 11 -21 -8 -41 -37 -41 -21 0 -173 0 -188 0 -5 0 -32 1 -60 1
-27 1 -54 1 -60 0 -5 -1 -14 -2 -20 -1 -5 1 -62 2 -125 1 -63 0 -137 0 -165 0
-212 4 -295 4 -295 0 0 -3 -24 -4 -52 -2 -72 4 -67 4 -123 3 -27 -1 -107 0
-178 1 -70 2 -127 -1 -127 -5 0 -5 -4 -6 -8 -3 -8 4 -86 7 -142 5 -8 0 -62 0
-120 0 -58 0 -112 0 -120 0 -8 0 -37 1 -65 1 -27 1 -54 1 -60 0 -5 -1 -14 -1
-20 0 -5 1 -46 1 -90 0 -90 -2 -83 -2 -150 0 -27 1 -54 1 -60 0 -5 -1 -14 -2
-20 -1 -5 1 -62 2 -125 1 -63 0 -137 0 -165 0 -212 4 -295 4 -295 0 0 -3 -24
-4 -52 -2 -72 4 -67 4 -123 3 -27 -1 -107 0 -178 1 -70 2 -127 -1 -127 -5 0
-5 -4 -6 -8 -3 -8 4 -86 7 -142 5 -8 0 -62 0 -120 0 -58 0 -112 0 -120 0 -8 0
-37 1 -65 1 -27 1 -54 1 -60 0 -5 -1 -14 -1 -20 0 -5 1 -46 1 -90 0 -44 -1
-87 -1 -95 -1 -8 0 -59 1 -112 1 -84 1 -98 4 -99 18 -3 39 -5 4078 -2 4083 1
4 965 7 2142 7 l2139 0 4 -65z m135 -4602 c23 -34 33 -50 61 -97 12 -22 30
-51 40 -66 9 -14 29 -46 43 -70 14 -23 99 -162 189 -308 90 -146 170 -276 177
-290 8 -14 26 -44 41 -67 15 -24 49 -80 77 -125 27 -46 53 -84 57 -86 4 -2 8
-7 8 -12 0 -4 18 -37 40 -71 22 -35 43 -71 47 -79 3 -8 24 -41 45 -73 21 -32
38 -60 38 -62 0 -2 29 -51 65 -108 36 -58 65 -107 65 -109 0 -6 -4187 -4
-4193 2 -10 11 -107 172 -107 178 0 3 -7 13 -16 23 -19 21 -52 77 -60 102 -4
9 -10 17 -15 17 -5 0 -9 4 -9 10 0 5 -31 59 -70 121 -38 61 -70 115 -70 119 0
5 -3 10 -7 12 -5 2 -15 15 -23 30 -8 15 -45 76 -81 135 -177 288 -313 511
-328 535 -114 190 -169 280 -192 314 -16 23 -26 44 -23 46 3 3 945 5 2094 5
l2089 0 18 -26z m-4407 -672 c0 -6 12 -26 26 -45 15 -19 22 -34 18 -34 -5 0
-1 -5 9 -11 9 -5 17 -14 17 -19 0 -5 51 -91 113 -192 100 -161 256 -417 290
-473 7 -11 23 -38 37 -60 34 -54 43 -69 88 -145 22 -36 67 -110 101 -165 58
-94 67 -126 42 -145 -5 -4 -94 -146 -136 -218 -6 -9 -30 -50 -55 -90 -25 -41
-52 -86 -61 -100 -9 -15 -78 -128 -154 -252 -76 -124 -183 -300 -239 -392 -56
-92 -103 -167 -106 -168 -3 0 -5 567 -5 1260 0 693 3 1260 8 1260 4 0 7 -5 7
-11z m5400 -1549 c0 -3 -4 -10 -9 -16 -5 -5 -18 -25 -29 -45 -32 -57 -46 -82
-55 -93 -22 -30 -78 -121 -80 -130 -1 -6 -5 -13 -8 -16 -6 -5 -337 -543 -567
-922 -51 -84 -100 -166 -110 -183 -9 -16 -20 -32 -23 -35 -3 -3 -31 -49 -63
-102 -32 -53 -65 -99 -74 -102 -18 -4 -4182 -5 -4182 0 0 1 33 56 73 121 40
65 76 125 80 133 9 19 30 53 38 60 3 3 72 115 155 250 179 294 169 277 190
318 10 17 21 32 25 32 4 0 10 11 13 25 4 14 11 25 16 25 6 0 10 4 10 9 0 8
270 455 338 561 9 14 25 40 35 59 10 18 23 39 30 45 9 10 463 13 2104 13 1151
0 2093 -3 2093 -7z"/>
</g>
</svg>
